HIERARCHY
ROOT root
{
	OFFSET	0.000000	0.000000	0.000000
	CHANNELS 6 Xposition Yposition Zposition Zrotation Yrotation Xrotation
	JOINT lhipjoint
	{
		OFFSET	0.000000	0.000000	0.000000
		CHANNELS 3 Zrotation Yrotation Xrotation
		JOINT lfemur
		{
			OFFSET	1.645494	-1.708786	0.845660
			CHANNELS 3 Zrotation Yrotation Xrotation
			JOINT ltibia
			{
				OFFSET	2.249633	-6.180820	0.000000
				CHANNELS 3 Zrotation Yrotation Xrotation
				JOINT lfoot
				{
					OFFSET	2.717752	-7.466968	0.000000
					CHANNELS 3 Zrotation Yrotation Xrotation
					JOINT ltoes
					{
						OFFSET	0.187679	-0.515643	2.247368
						CHANNELS 3 Zrotation Yrotation Xrotation
						End Site
						{
							OFFSET	0.000000	-0.000000	1.159350
						}
					}
				}
			}
		}
	}
	JOINT rhipjoint
	{
		OFFSET	0.000000	0.000000	0.000000
		CHANNELS 3 Zrotation Yrotation Xrotation
		JOINT rfemur
		{
			OFFSET	-1.588298	-1.708789	0.845662
			CHANNELS 3 Zrotation Yrotation Xrotation
			JOINT rtibia
			{
				OFFSET	-2.250064	-6.182003	0.000000
				CHANNELS 3 Zrotation Yrotation Xrotation
				JOINT rfoot
				{
					OFFSET	-2.728293	-7.495929	0.000000
					CHANNELS 3 Zrotation Yrotation Xrotation
					JOINT rtoes
					{
						OFFSET	-0.215414	-0.591846	2.106425
						CHANNELS 3 Zrotation Yrotation Xrotation
						End Site
						{
							OFFSET	-0.000000	-0.000000	1.098380
						}
					}
				}
			}
		}
	}
	JOINT lowerback
	{
		OFFSET	0.000000	0.000000	0.000000
		CHANNELS 3 Zrotation Yrotation Xrotation
		JOINT upperback
		{
			OFFSET	0.031419	2.104964	-0.110379
			CHANNELS 3 Zrotation Yrotation Xrotation
			JOINT thorax
			{
				OFFSET	-0.018626	2.108971	-0.069557
				CHANNELS 3 Zrotation Yrotation Xrotation
				JOINT lowerneck
				{
					OFFSET	-0.034945	2.110023	-0.018114
					CHANNELS 3 Zrotation Yrotation Xrotation
					JOINT upperneck
					{
						OFFSET	-0.022675	1.732376	0.004511
						CHANNELS 3 Zrotation Yrotation Xrotation
						JOINT head
						{
							OFFSET	-0.058084	1.547243	-0.617485
							CHANNELS 3 Zrotation Yrotation Xrotation
							End Site
							{
								OFFSET	-0.013955	1.714682	-0.210818
							}
						}
					}
				}
				JOINT lclavicle
				{
					OFFSET	-0.034945	2.110023	-0.018114
					CHANNELS 3 Zrotation Yrotation Xrotation
					JOINT lhumerus
					{
						OFFSET	3.448981	0.502979	0.219205
						CHANNELS 3 Zrotation Yrotation Xrotation
						JOINT lradius
						{
							OFFSET	5.419170	-0.000000	-0.000000
							CHANNELS 3 Zrotation Yrotation Xrotation
							JOINT lwrist
							{
								OFFSET	2.443730	-0.000000	0.000000
								CHANNELS 3 Zrotation Yrotation Xrotation
								JOINT lhand
								{
									OFFSET	1.221860	-0.000000	0.000000
									CHANNELS 3 Zrotation Yrotation Xrotation
									JOINT lfingers
									{
										OFFSET	0.727502	-0.000000	0.000000
										CHANNELS 3 Zrotation Yrotation Xrotation
										End Site
										{
											OFFSET	0.586531	-0.000000	0.000000
										}
									}
								}
								JOINT lthumb
								{
									OFFSET	1.221860	-0.000000	0.000000
									CHANNELS 3 Zrotation Yrotation Xrotation
									End Site
									{
										OFFSET	0.595487	-0.000000	0.595487
									}
								}
							}
						}
					}
				}
				JOINT rclavicle
				{
					OFFSET	-0.034945	2.110023	-0.018114
					CHANNELS 3 Zrotation Yrotation Xrotation
					JOINT rhumerus
					{
						OFFSET	-3.230153	0.558301	0.310511
						CHANNELS 3 Zrotation Yrotation Xrotation
						JOINT rradius
						{
							OFFSET	-5.589760	-0.000102	0.000137
							CHANNELS 3 Zrotation Yrotation Xrotation
							JOINT rwrist
							{
								OFFSET	-2.480600	-0.000000	0.000000
								CHANNELS 3 Zrotation Yrotation Xrotation
								JOINT rhand
								{
									OFFSET	-1.240300	-0.000000	0.000000
									CHANNELS 3 Zrotation Yrotation Xrotation
									JOINT rfingers
									{
										OFFSET	-0.816009	-0.000000	0.000000
										CHANNELS 3 Zrotation Yrotation Xrotation
										End Site
										{
											OFFSET	-0.657887	-0.000000	0.000000
										}
									}
								}
								JOINT rthumb
								{
									OFFSET	-1.240300	-0.000000	0.000000
									CHANNELS 3 Zrotation Yrotation Xrotation
									End Site
									{
										OFFSET	-0.667932	-0.000000	0.667932
									}
								}
							}
						}
					}
				}
			}
		}
	}
}
MOTION
Frames:	11
Frame Time:	0.008333
	4.322810	16.592899	-15.236200	-3.199980	9.033799	30.179502	0.000000	0.000000	0.000000	-26.207840	10.581646	-26.766273	4.322716	12.577889	37.808247	-3.491415	47.639305	22.192551	0.294316	3.488519	9.641932	0.000000	0.000000	0.000000	28.597410	18.482111	-41.035107	-2.437466	-9.723308	28.085281	-1.752629	-21.229616	-39.834969	-1.021991	-6.431190	18.040760	3.953420	-3.011970	-18.546000	5.282820	-4.538680	-11.668701	2.639980	-2.313330	-2.080300	-2.878150	-8.360479	-14.273298	-2.820530	-11.072600	39.370796	-2.721600	-5.448720	16.537800	-2.878150	-0.000000	0.000000	-86.215782	26.434298	31.061335	17.646685	-27.702396	-4.383752	0.000000	0.000000	-6.256549	2.228644	16.259241	0.624271	-7.125019	0.000000	0.000000	-23.480116	44.862919	0.084238	-2.878150	-0.000000	0.000000	74.359207	-21.454260	29.501204	-12.963390	21.233549	-2.440012	0.000000	-0.000002	-18.926193	4.675318	12.413635	1.007178	7.125019	0.000000	0.000000	21.786612	-17.952724	15.148392
	4.325960	16.583401	-15.233800	-3.213820	9.092680	30.173195	0.000000	0.000000	0.000000	-26.129927	10.429585	-26.708363	4.350898	12.613259	37.937496	0.897785	41.102211	32.817818	0.182934	-2.754807	-7.596847	0.000000	0.000000	0.000000	28.918697	17.923197	-40.941288	-2.411330	-9.674872	27.930151	-2.109521	-19.876308	-40.257420	-1.268071	-7.137563	20.123554	3.996080	-3.005020	-18.493803	5.317630	-4.525620	-11.761300	2.663701	-2.308890	-2.210071	-2.944820	-8.198121	-14.382698	-2.681910	-10.874998	39.682701	-2.644550	-5.344450	16.751999	-2.944820	-0.000000	0.000000	-86.298325	26.460438	31.037579	17.517082	-27.534388	-4.323671	0.000000	-0.000002	-6.102808	2.130015	16.306917	0.598326	-7.125019	0.000000	0.000000	-23.585052	44.894901	0.064899	-2.944820	-0.000000	0.000000	74.379196	-21.520424	29.453850	-12.914668	21.162060	-2.422395	0.000000	0.000000	-18.548491	3.388868	12.192377	0.716511	7.125019	0.000000	0.000000	20.979536	-18.156366	14.396173
	4.324250	16.578699	-15.237100	-3.240571	9.072950	30.208704	0.000000	0.000000	0.000000	-26.096483	10.386268	-26.789074	4.358726	12.623047	37.973316	0.539978	41.925259	32.052475	0.119850	-2.231864	-6.146881	0.000000	0.000000	0.000000	29.014166	17.853535	-40.908752	-2.400940	-9.655526	27.868267	-2.359563	-19.172152	-40.800522	-1.426530	-7.552530	21.362982	4.000230	-2.956050	-18.478100	5.311368	-4.455860	-11.826399	2.670630	-2.274610	-2.292060	-2.870850	-7.953151	-14.545101	-2.534859	-10.595001	40.005402	-2.573530	-5.182961	16.976400	-2.870850	0.000000	0.000000	-86.238266	26.409866	31.211346	17.422066	-27.410812	-4.279836	0.000000	0.000000	-6.091258	1.958307	16.460791	0.555105	-7.125019	0.000000	0.000000	-23.797218	45.015453	-0.009638	-2.870850	0.000000	0.000000	74.490669	-21.560524	29.364609	-12.930717	21.185612	-2.428190	0.000000	-0.000002	-18.213499	2.260748	12.297208	0.481739	7.125019	0.000000	0.000000	20.227936	-18.049982	13.856893
	4.320270	16.578199	-15.240100	-3.198710	9.055039	30.246099	0.000000	0.000000	0.000000	-26.110615	10.306869	-26.829037	4.362134	12.627305	37.988903	0.498858	42.235550	32.118069	0.122786	-2.258926	-6.221784	0.000000	0.000000	0.000000	28.896109	18.064964	-40.872402	-2.392208	-9.639227	27.816158	-2.344980	-19.385141	-40.913857	-1.426393	-7.552179	21.361935	3.908650	-2.952570	-18.479097	5.308599	-4.435410	-11.862900	2.723750	-2.259650	-2.324620	-2.612480	-7.530331	-14.923600	-2.505160	-10.046799	40.401001	-2.550350	-4.895411	17.274599	-2.612480	-0.000000	0.000000	-86.265289	26.302519	31.144258	17.361826	-27.332294	-4.252141	-0.000000	0.000002	-6.014719	1.921664	16.450644	0.544383	-7.125019	0.000000	0.000000	-23.824852	45.001930	-0.001197	-2.612480	-0.000000	0.000000	74.547852	-21.518366	29.333494	-12.892023	21.128803	-2.414224	0.000000	0.000000	-18.022495	1.439737	13.105998	0.326536	7.125019	0.000000	0.000000	19.597942	-17.278803	13.723825
	4.319400	16.578199	-15.238100	-3.148551	9.038610	30.279797	0.000000	0.000000	0.000000	-26.143028	10.283138	-26.815029	4.360926	12.625797	37.983383	-0.211943	43.196190	30.207407	0.020273	-0.919263	-2.526693	0.000000	0.000000	0.000000	28.878901	17.983343	-40.900013	-2.386043	-9.627699	27.779318	-2.360931	-19.250143	-40.872417	-1.445622	-7.600729	21.507765	3.829391	-2.941820	-18.526102	5.288260	-4.408090	-11.924700	2.751461	-2.242370	-2.364141	-2.367341	-7.323061	-15.401800	-2.566630	-9.814581	41.036209	-2.644220	-4.743300	17.734201	-2.367340	0.000000	-0.000000	-86.241432	26.325598	31.160635	17.371588	-27.345022	-4.256624	0.000000	-0.000002	-5.986968	1.758399	16.690865	0.505174	-7.125019	0.000000	0.000000	-24.066523	45.201942	-0.127507	-2.367340	0.000000	-0.000000	74.594231	-21.560938	29.440729	-12.819384	21.021997	-2.388104	0.000000	0.000000	-17.907101	0.509501	14.071265	0.123877	7.125019	0.000000	0.000000	18.891333	-16.349476	13.575767
	4.321650	16.578100	-15.232700	-3.216350	9.027901	30.237701	0.000000	0.000000	0.000000	-26.065937	10.331420	-26.743740	4.357777	12.621861	37.968971	2.464301	40.297279	38.003540	0.226786	-3.065307	-8.460621	0.000000	0.000000	0.000000	29.078533	17.708538	-40.904724	-2.385202	-9.626124	27.774290	-2.342628	-19.064854	-40.632767	-1.441890	-7.591341	21.479548	3.931590	-2.884400	-18.495102	5.258800	-4.337770	-12.027200	2.682360	-2.214430	-2.505340	-1.962770	-7.062990	-16.334600	-2.829100	-9.503090	42.175102	-2.905560	-4.536320	18.605801	-1.962770	0.000000	0.000000	-86.164177	26.550926	31.226393	17.431957	-27.423695	-4.284389	0.000000	-0.000002	-5.963457	1.795734	16.883568	0.521689	-7.125019	0.000000	0.000000	-24.115051	45.382221	-0.241816	-1.962770	0.000000	0.000000	74.681328	-21.851761	29.626106	-12.909559	21.154554	-2.420549	-0.000000	0.000002	-17.794294	-0.576643	14.592896	-0.145290	7.125019	0.000000	0.000000	18.135180	-15.826846	13.187693
	4.322530	16.575701	-15.229000	-3.365000	9.037550	30.209499	0.000000	0.000000	0.000000	-25.895784	10.310324	-26.702660	4.353549	12.616574	37.949631	-0.042936	42.514709	30.314993	0.014004	-0.764071	-2.099864	0.000000	0.000000	0.000000	29.301102	17.621277	-40.887466	-2.384007	-9.623886	27.767139	-2.231519	-19.142302	-40.185184	-1.375339	-7.421443	20.970098	4.104040	-2.816880	-18.452398	5.269840	-4.264740	-12.111000	2.617260	-2.187670	-2.634770	-2.015240	-6.866681	-16.059099	-2.518500	-9.328950	42.392208	-2.716270	-4.426670	18.700096	-2.015240	-0.000000	0.000000	-86.171898	26.762705	31.140882	17.530626	-27.551975	-4.329932	-0.000000	0.000002	-6.013744	2.008832	16.826033	0.581710	-7.125019	0.000000	0.000000	-23.905319	45.355389	-0.222639	-2.015240	-0.000000	0.000000	74.739540	-22.070484	29.791683	-13.046330	21.355062	-2.470132	0.000000	0.000000	-17.683496	-1.421792	14.687465	-0.360559	7.125019	0.000000	0.000000	17.575058	-15.710740	12.783359
	4.320650	16.572901	-15.227700	-3.370311	8.971328	30.165998	0.000000	0.000000	0.000000	-25.900562	10.316852	-26.620459	4.343750	12.604300	37.904736	1.600660	39.881435	34.653625	0.389989	-4.010037	-11.104911	0.000000	0.000000	0.000000	29.223679	17.846788	-40.755524	-2.381775	-9.619709	27.753799	-2.162063	-19.386246	-40.072041	-1.358650	-7.378118	20.840521	4.044859	-2.772650	-18.441097	5.265721	-4.198451	-12.090102	2.655450	-2.150450	-2.614130	-1.734900	-6.554450	-16.660898	-2.551300	-8.946419	42.908302	-2.772940	-4.202080	19.171101	-1.734900	-0.000000	0.000000	-86.226196	26.674164	31.073790	17.476091	-27.481115	-4.304735	-0.000000	0.000002	-6.113375	2.084074	16.862675	0.604788	-7.125019	0.000000	0.000000	-23.855154	45.397934	-0.248676	-1.734900	-0.000000	0.000000	74.818405	-22.025791	29.723648	-13.116067	21.457045	-2.495588	0.000000	0.000000	-17.451399	-2.146657	14.493351	-0.537472	7.125019	0.000000	0.000000	17.114943	-15.871621	12.352388
	4.321430	16.570999	-15.222100	-3.383781	8.794731	29.997900	0.000000	0.000000	0.000000	-25.956484	10.544993	-26.444784	4.327917	12.584428	37.832123	1.702655	39.460911	34.784214	0.415286	-4.136521	-11.461067	0.000000	0.000000	0.000000	29.218845	17.911085	-40.506523	-2.382455	-9.620979	27.757854	-2.068269	-19.656387	-39.869953	-1.247167	-7.080691	19.954645	3.975520	-2.683300	-18.334902	5.229001	-4.064240	-12.085001	2.680980	-2.080140	-2.662310	-1.488600	-6.319420	-16.847097	-2.593000	-8.668009	43.290302	-2.814280	-4.039190	19.451803	-1.488600	-0.000000	0.000000	-86.298553	26.665247	30.821014	17.412859	-27.398829	-4.275603	0.000000	0.000000	-5.981118	2.096641	16.701435	0.602787	-7.125019	0.000000	0.000000	-23.776842	45.252045	-0.156966	-1.488600	-0.000000	0.000000	74.968956	-22.105974	29.296646	-13.125136	21.470289	-2.498900	0.000000	-0.000002	-16.966900	-2.803275	14.373593	-0.696422	7.125019	0.000000	0.000000	16.691330	-15.962589	11.983094
	4.326150	16.569201	-15.210800	-3.527620	8.647593	29.679106	0.000000	0.000000	0.000000	-25.849747	10.918720	-26.110220	4.306188	12.557073	37.732296	1.256789	40.303169	33.636833	0.266638	-3.321792	-9.175964	0.000000	0.000000	0.000000	29.561434	17.530439	-40.201744	-2.388386	-9.632085	27.793335	-1.597874	-20.477407	-38.364513	-0.882300	-5.987912	16.749352	4.070779	-2.567060	-18.220598	5.222930	-3.922890	-11.994999	2.644330	-2.013400	-2.632020	-1.633210	-6.090980	-15.748200	-2.031760	-8.453270	42.613201	-2.373690	-3.939820	18.775400	-1.633210	-0.000000	0.000000	-86.345528	26.632406	30.560238	17.383184	-27.360151	-4.261951	-0.000000	0.000002	-5.789485	1.995130	16.193085	0.556595	-7.125019	0.000000	0.000000	-23.655569	44.774944	0.139482	-1.633210	-0.000000	0.000000	75.106506	-22.032261	28.691685	-12.942913	21.203505	-2.432601	0.000000	0.000000	-16.253092	-3.470033	14.806795	-0.887813	7.125019	0.000000	0.000000	16.220922	-15.520837	11.777103
	4.329100	16.566401	-15.204300	-3.555460	8.563670	29.508204	0.000000	0.000000	0.000000	-25.854710	11.093367	-25.873270	4.285006	12.530301	37.634754	1.114087	40.622871	33.308807	0.236532	-3.130033	-8.640976	0.000000	0.000000	0.000000	29.689720	17.310211	-40.043884	-2.392384	-9.639558	27.817213	-2.120549	-19.187176	-39.703671	-1.229443	-7.032062	19.810389	4.029720	-2.525280	-18.218298	5.222960	-3.868870	-11.889499	2.669980	-1.982320	-2.514740	-1.533070	-5.847240	-15.570801	-1.743590	-8.212310	42.421703	-2.187230	-3.793530	18.626602	-1.533070	0.000000	0.000000	-86.422798	26.465382	30.229307	17.262342	-27.202326	-4.206563	-0.000000	0.000002	-5.514112	1.726348	15.794779	0.470037	-7.125019	0.000000	0.000000	-23.726866	44.379490	0.386084	-1.533070	0.000000	0.000000	75.239021	-21.709278	28.197527	-12.644772	20.764524	-2.325833	-0.000000	0.000002	-15.693895	-4.219014	15.396160	-1.121992	7.125019	0.000000	0.000000	15.690801	-14.920376	11.571126
